# Blender v2.79 (sub 0) OBJ File: 'wall.blend'
# www.blender.org
mtllib wall.mtl
o wall
v -0.500000 -1.000000 0.500000
v -0.500000 0.000000 0.500000
v -0.500000 -1.000000 -0.500000
v -0.500000 0.000000 -0.500000
v 0.500000 -1.000000 0.500000
v 0.500000 0.000000 0.500000
v 0.500000 -1.000000 -0.500000
v 0.500000 0.000000 -0.500000
v -0.500000 2.000000 0.500000
v -0.500000 2.000000 -0.500000
v 0.500000 2.000000 0.500000
v 0.500000 2.000000 -0.500000
vt -0.062500 1.062500
vt -0.062500 1.062500
vt -0.062500 1.062500
vt -0.062500 1.062500
vt -0.062500 1.062500
vt -0.062500 1.062500
vt -0.062500 1.062500
vt -0.062500 1.062500
vt 0.000174 0.002959
vt 0.498607 0.002959
vt 0.498607 0.999826
vt 0.000174 0.999826
vt -0.062500 1.062500
vt -0.062500 1.062500
vt -0.062500 1.062500
vt -0.062500 1.062500
vt 0.997041 0.002959
vt 0.997041 0.999826
vt 0.498592 0.002951
vt 0.997026 0.002951
vt 0.997026 0.999818
vt 0.498592 0.999818
vt 0.000159 0.002951
vt 0.000159 0.999818
vn -1.0000 0.0000 0.0000
vn 0.0000 0.0000 -1.0000
vn 1.0000 0.0000 0.0000
vn 0.0000 0.0000 1.0000
vn 0.0000 -1.0000 0.0000
vn 0.0000 1.0000 0.0000
usemtl None
s off
f 1/1/1 2/2/1 4/3/1 3/4/1
f 3/4/2 4/3/2 8/5/2 7/6/2
f 7/6/3 8/5/3 6/7/3 5/8/3
f 5/8/4 6/7/4 2/2/4 1/1/4
f 3/4/5 7/6/5 5/8/5 1/1/5
f 4/9/1 2/10/1 9/11/1 10/12/1
f 12/13/6 10/14/6 9/15/6 11/16/6
f 2/10/4 6/17/4 11/18/4 9/11/4
f 8/19/2 4/20/2 10/21/2 12/22/2
f 6/23/3 8/19/3 12/22/3 11/24/3
