# Blender v2.79 (sub 0) OBJ File: 'tile.blend'
# www.blender.org
mtllib tile.mtl
o Cube_Cube.001
v -0.500000 -1.000000 0.500000
v -0.500000 0.000000 0.500000
v -0.500000 -1.000000 -0.500000
v -0.500000 0.000000 -0.500000
v 0.500000 -1.000000 0.500000
v 0.500000 0.000000 0.500000
v 0.500000 -1.000000 -0.500000
v 0.500000 0.000000 -0.500000
vt -0.062400 1.062400
vt -0.062400 1.062400
vt -0.062400 1.062400
vt -0.062400 1.062400
vt -0.062400 1.062400
vt -0.062400 1.062400
vt -0.062400 1.062400
vt -0.062400 1.062400
vt 0.999700 0.000300
vt 0.999700 0.999900
vt 0.000100 0.999900
vt 0.000100 0.000300
vn -1.0000 0.0000 0.0000
vn 0.0000 0.0000 -1.0000
vn 1.0000 0.0000 0.0000
vn 0.0000 0.0000 1.0000
vn 0.0000 -1.0000 0.0000
vn 0.0000 1.0000 0.0000
usemtl None
s off
f 1/1/1 2/2/1 4/3/1 3/4/1
f 3/4/2 4/3/2 8/5/2 7/6/2
f 7/6/3 8/5/3 6/7/3 5/8/3
f 5/8/4 6/7/4 2/2/4 1/1/4
f 3/4/5 7/6/5 5/8/5 1/1/5
f 8/9/6 4/10/6 2/11/6 6/12/6
